<mxfile host="app.diagrams.net" modified="2024-06-24T22:12:53.018Z" agent="Mozilla/5.0 (iPad; CPU OS 17_5 like Mac OS X) AppleWebKit/605.1.15 (KHTML, like Gecko) CriOS/126.0.6478.108 Mobile/15E148 Safari/604.1" etag="vg07VGvjqR5RQCYlY-i7" version="24.6.2" type="github">
  <diagram name="Page-1" id="al_NvDkrKAYoRqjMPVDi">
    <mxGraphModel dx="1120" dy="782" grid="0" gridSize="10" guides="1" tooltips="1" connect="1" arrows="1" fold="1" page="0" pageScale="1" pageWidth="850" pageHeight="1100" math="0" shadow="0">
      <root>
        <mxCell id="0" />
        <mxCell id="1" parent="0" />
      </root>
    </mxGraphModel>
  </diagram>
</mxfile>
